<?xml version="1.0" encoding="utf-8"?>
<!-- Generator: Adobe Illustrator 23.0.3, SVG Export Plug-In . SVG Version: 6.00 Build 0)  -->
<svg version="1.1" id="Layer_1" xmlns="http://www.w3.org/2000/svg" xmlns:xlink="http://www.w3.org/1999/xlink" x="0px" y="0px"
	 viewBox="0 0 65 88" style="enable-background:new 0 0 65 88;" xml:space="preserve">
<style type="text/css">
	.st0{fill:#010101;}
	.st1{fill:#FAFBFC;}
</style>
<path class="st0" d="M64.1,53.7c0.7,24-13.3,32.8-30.9,33.3c-0.4,0-0.8,0-1.2,0c-0.8,0-1.6,0-2.4,0C13.6,86.3,1,77.9,0.4,55.5
	c-0.7-23.1,28-53.1,30.2-55.3l0,0c0.1-0.1,0.1-0.1,0.1-0.1S63.4,29.7,64.1,53.7z"/>
<path class="st1" d="M31.9,83.4l11.2-16.6L32,85.2l0,1.9c-0.8,0-1.6,0-2.4,0l0.6-24.1l0-0.2l0,0l0.1-2.3L17.9,42.7l12.2,16.1l0,0.5
	L30.6,41L20.1,22.6l10.6,15.2L30.5,0.2l0-0.1l0,0.1l0.7,29.7l9.6-12.1l-9.6,14.6l0.2,16.3l8.9-15.9l-8.8,18.3l0.1,9L44.5,38
	L31.7,63.3L31.9,83.4z"/>
</svg>
