<?xml version="1.0"?>
<svg xmlns="http://www.w3.org/2000/svg" xmlns:xlink="http://www.w3.org/1999/xlink" version="1.1" id="Capa_1" x="0px" y="0px" viewBox="0 0 512 512" style="enable-background:new 0 0 512 512;" xml:space="preserve" width="512px" height="512px" class=""><g><g>
	<g>
		<g>
			<path d="M464,0H48C21.49,0,0,21.49,0,48v416c0,26.51,21.49,48,48,48h416c26.51,0,48-21.49,48-48V48C512,21.49,490.51,0,464,0z      M480,464c0,8.837-7.163,16-16,16H48c-8.837,0-16-7.163-16-16V160h448V464z M480,128H32V48c0-8.837,7.163-16,16-16h416     c8.837,0,16,7.163,16,16V128z" data-original="#000000" class="active-path" data-old_color="#000000" fill="#C67E7E"/>
			<rect x="64" y="64" width="32" height="32" data-original="#000000" class="active-path" data-old_color="#000000" fill="#C67E7E"/>
			<rect x="128" y="64" width="32" height="32" data-original="#000000" class="active-path" data-old_color="#000000" fill="#C67E7E"/>
			<rect x="416" y="64" width="32" height="32" data-original="#000000" class="active-path" data-old_color="#000000" fill="#C67E7E"/>
			<path d="M96,320h320c8.837,0,16-7.163,16-16v-96c0-8.837-7.163-16-16-16H96c-8.837,0-16,7.163-16,16v96     C80,312.837,87.163,320,96,320z M112,224h288v64H112V224z" data-original="#000000" class="active-path" data-old_color="#000000" fill="#C67E7E"/>
			<rect x="80" y="352" width="224" height="32" data-original="#000000" class="active-path" data-old_color="#000000" fill="#C67E7E"/>
			<rect x="80" y="416" width="352" height="32" data-original="#000000" class="active-path" data-old_color="#000000" fill="#C67E7E"/>
		</g>
	</g>
</g></g> </svg>
